<svg width="20" height="20" viewBox="0 0 20 20" fill="none" xmlns="http://www.w3.org/2000/svg">
<path d="M9.99805 0C4.48405 0 -0.00195312 4.487 -0.00195312 10C-0.00195312 15.515 4.48405 20 9.99805 20C15.512 20 19.998 15.515 19.998 10C19.998 4.487 15.512 0 9.99805 0ZM9.99805 16.25C9.30805 16.25 8.74805 15.691 8.74805 15C8.74805 14.31 9.30805 13.75 9.99805 13.75C10.688 13.75 11.248 14.31 11.248 15C11.248 15.691 10.688 16.25 9.99805 16.25ZM10.998 11.875V13H8.99805V10H9.99805C11.102 10 11.998 9.103 11.998 8C11.998 6.896 11.102 6 9.99805 6C8.89405 6 7.99805 6.896 7.99805 8H5.99805C5.99805 5.795 7.79305 4 9.99805 4C12.203 4 13.998 5.795 13.998 8C13.998 9.861 12.721 11.429 10.998 11.875Z" fill="#C7C9CB"/>
</svg>
